<svg xmlns="http://www.w3.org/2000/svg" xmlns:xlink="http://www.w3.org/1999/xlink" width="510" zoomAndPan="magnify" viewBox="0 0 382.5 382.499997" height="510" preserveAspectRatio="xMidYMid meet" version="1.0"><path fill="#ffffff" d="M 0 0 L 382 0 L 382 382 L 0 382 Z M 0 0 " fill-opacity="1" fill-rule="nonzero"/><path fill="#ffffff" d="M 0 0 L 382 0 L 382 382 L 0 382 Z M 0 0 " fill-opacity="1" fill-rule="nonzero"/><path fill="#bc65a7" d="M 382 190.902344 C 382 194.027344 381.925781 197.148438 381.769531 200.269531 C 381.617188 203.390625 381.386719 206.503906 381.082031 209.613281 C 380.773438 212.722656 380.394531 215.824219 379.933594 218.914062 C 379.476562 222.003906 378.941406 225.082031 378.332031 228.144531 C 377.722656 231.210938 377.039062 234.257812 376.28125 237.289062 C 375.519531 240.316406 374.6875 243.328125 373.78125 246.316406 C 372.875 249.308594 371.894531 252.273438 370.839844 255.214844 C 369.789062 258.15625 368.664062 261.070312 367.46875 263.957031 C 366.273438 266.84375 365.007812 269.699219 363.671875 272.523438 C 362.335938 275.347656 360.933594 278.136719 359.460938 280.890625 C 357.988281 283.648438 356.445312 286.367188 354.839844 289.046875 C 353.234375 291.726562 351.5625 294.363281 349.828125 296.960938 C 348.09375 299.558594 346.292969 302.113281 344.433594 304.621094 C 342.570312 307.132812 340.648438 309.59375 338.667969 312.007812 C 336.6875 314.425781 334.644531 316.789062 332.546875 319.105469 C 330.449219 321.417969 328.296875 323.679688 326.085938 325.890625 C 323.878906 328.097656 321.617188 330.253906 319.300781 332.351562 C 316.984375 334.449219 314.621094 336.488281 312.207031 338.472656 C 309.789062 340.453125 307.328125 342.375 304.820312 344.234375 C 302.308594 346.097656 299.757812 347.894531 297.15625 349.632812 C 294.558594 351.367188 291.921875 353.039062 289.242188 354.644531 C 286.5625 356.25 283.84375 357.789062 281.089844 359.261719 C 278.332031 360.734375 275.542969 362.140625 272.71875 363.476562 C 269.894531 364.8125 267.039062 366.078125 264.152344 367.273438 C 261.265625 368.46875 258.351562 369.59375 255.410156 370.644531 C 252.46875 371.695312 249.503906 372.675781 246.515625 373.582031 C 243.523438 374.492188 240.515625 375.324219 237.484375 376.082031 C 234.453125 376.84375 231.40625 377.527344 228.34375 378.136719 C 225.277344 378.746094 222.199219 379.277344 219.109375 379.738281 C 216.019531 380.195312 212.917969 380.578125 209.808594 380.882812 C 206.703125 381.191406 203.585938 381.421875 200.464844 381.574219 C 197.34375 381.726562 194.222656 381.804688 191.097656 381.804688 C 187.976562 381.804688 184.851562 381.726562 181.730469 381.574219 C 178.609375 381.421875 175.496094 381.191406 172.386719 380.882812 C 169.277344 380.578125 166.179688 380.195312 163.085938 379.738281 C 159.996094 379.277344 156.921875 378.746094 153.855469 378.136719 C 150.792969 377.527344 147.746094 376.84375 144.714844 376.082031 C 141.683594 375.324219 138.671875 374.492188 135.683594 373.582031 C 132.691406 372.675781 129.726562 371.695312 126.785156 370.644531 C 123.84375 369.59375 120.929688 368.46875 118.042969 367.273438 C 115.15625 366.078125 112.300781 364.8125 109.476562 363.476562 C 106.652344 362.140625 103.863281 360.734375 101.109375 359.261719 C 98.351562 357.789062 95.636719 356.25 92.957031 354.644531 C 90.277344 353.039062 87.636719 351.367188 85.039062 349.632812 C 82.441406 347.894531 79.886719 346.097656 77.378906 344.234375 C 74.871094 342.375 72.40625 340.453125 69.992188 338.472656 C 67.578125 336.488281 65.210938 334.449219 62.898438 332.351562 C 60.582031 330.253906 58.320312 328.097656 56.109375 325.890625 C 53.902344 323.679688 51.75 321.417969 49.648438 319.105469 C 47.550781 316.789062 45.511719 314.425781 43.53125 312.007812 C 41.546875 309.59375 39.625 307.132812 37.765625 304.621094 C 35.902344 302.113281 34.105469 299.558594 32.371094 296.960938 C 30.632812 294.363281 28.964844 291.726562 27.355469 289.046875 C 25.75 286.367188 24.210938 283.648438 22.738281 280.890625 C 21.265625 278.136719 19.863281 275.347656 18.527344 272.523438 C 17.191406 269.699219 15.925781 266.84375 14.730469 263.957031 C 13.53125 261.070312 12.410156 258.15625 11.355469 255.214844 C 10.304688 252.273438 9.324219 249.308594 8.417969 246.316406 C 7.511719 243.328125 6.675781 240.316406 5.917969 237.289062 C 5.160156 234.257812 4.476562 231.210938 3.867188 228.144531 C 3.253906 225.082031 2.722656 222.003906 2.261719 218.914062 C 1.804688 215.824219 1.421875 212.722656 1.117188 209.613281 C 0.808594 206.503906 0.582031 203.390625 0.425781 200.269531 C 0.273438 197.148438 0.195312 194.027344 0.195312 190.902344 C 0.195312 187.777344 0.273438 184.65625 0.425781 181.535156 C 0.582031 178.414062 0.808594 175.300781 1.117188 172.191406 C 1.421875 169.082031 1.804688 165.980469 2.261719 162.890625 C 2.722656 159.800781 3.253906 156.722656 3.867188 153.660156 C 4.476562 150.59375 5.160156 147.546875 5.917969 144.515625 C 6.675781 141.484375 7.511719 138.476562 8.417969 135.484375 C 9.324219 132.496094 10.304688 129.53125 11.355469 126.589844 C 12.410156 123.648438 13.53125 120.734375 14.730469 117.847656 C 15.925781 114.960938 17.191406 112.105469 18.527344 109.28125 C 19.863281 106.457031 21.265625 103.667969 22.738281 100.910156 C 24.210938 98.15625 25.75 95.4375 27.355469 92.757812 C 28.964844 90.078125 30.632812 87.441406 32.371094 84.84375 C 34.105469 82.246094 35.902344 79.691406 37.765625 77.183594 C 39.625 74.671875 41.546875 72.210938 43.53125 69.796875 C 45.511719 67.378906 47.550781 65.015625 49.648438 62.699219 C 51.75 60.386719 53.902344 58.125 56.109375 55.914062 C 58.320312 53.703125 60.582031 51.550781 62.898438 49.453125 C 65.210938 47.355469 67.578125 45.316406 69.992188 43.332031 C 72.40625 41.351562 74.871094 39.429688 77.378906 37.570312 C 79.886719 35.707031 82.441406 33.910156 85.039062 32.171875 C 87.636719 30.4375 90.277344 28.765625 92.957031 27.160156 C 95.636719 25.554688 98.351562 24.015625 101.109375 22.542969 C 103.863281 21.070312 106.652344 19.664062 109.476562 18.328125 C 112.300781 16.992188 115.15625 15.726562 118.042969 14.53125 C 120.929688 13.335938 123.84375 12.210938 126.785156 11.160156 C 129.726562 10.105469 132.691406 9.128906 135.683594 8.21875 C 138.671875 7.3125 141.683594 6.480469 144.714844 5.722656 C 147.746094 4.960938 150.792969 4.277344 153.855469 3.667969 C 156.921875 3.058594 159.996094 2.523438 163.085938 2.066406 C 166.179688 1.609375 169.277344 1.226562 172.386719 0.917969 C 175.496094 0.613281 178.609375 0.382812 181.730469 0.230469 C 184.851562 0.078125 187.976562 0 191.097656 0 C 194.222656 0 197.34375 0.078125 200.464844 0.230469 C 203.585938 0.382812 206.703125 0.613281 209.8125 0.917969 C 212.917969 1.226562 216.019531 1.609375 219.109375 2.066406 C 222.199219 2.523438 225.277344 3.058594 228.34375 3.667969 C 231.40625 4.277344 234.453125 4.960938 237.484375 5.722656 C 240.515625 6.480469 243.523438 7.3125 246.515625 8.21875 C 249.503906 9.128906 252.46875 10.105469 255.410156 11.160156 C 258.351562 12.210938 261.265625 13.335938 264.152344 14.53125 C 267.039062 15.726562 269.894531 16.992188 272.71875 18.328125 C 275.542969 19.664062 278.335938 21.070312 281.089844 22.542969 C 283.84375 24.015625 286.5625 25.554688 289.242188 27.160156 C 291.921875 28.765625 294.558594 30.4375 297.15625 32.171875 C 299.757812 33.910156 302.308594 35.707031 304.820312 37.570312 C 307.328125 39.429688 309.789062 41.351562 312.207031 43.332031 C 314.621094 45.316406 316.984375 47.355469 319.300781 49.453125 C 321.617188 51.550781 323.878906 53.703125 326.085938 55.914062 C 328.296875 58.125 330.449219 60.386719 332.546875 62.699219 C 334.644531 65.015625 336.6875 67.378906 338.667969 69.796875 C 340.648438 72.210938 342.570312 74.671875 344.433594 77.183594 C 346.292969 79.691406 348.09375 82.246094 349.828125 84.84375 C 351.5625 87.441406 353.234375 90.078125 354.839844 92.757812 C 356.445312 95.4375 357.988281 98.15625 359.460938 100.910156 C 360.933594 103.667969 362.335938 106.457031 363.671875 109.28125 C 365.007812 112.105469 366.273438 114.960938 367.46875 117.847656 C 368.664062 120.734375 369.789062 123.648438 370.839844 126.589844 C 371.894531 129.53125 372.875 132.496094 373.78125 135.484375 C 374.6875 138.476562 375.519531 141.484375 376.28125 144.515625 C 377.039062 147.546875 377.722656 150.59375 378.332031 153.660156 C 378.941406 156.722656 379.476562 159.800781 379.933594 162.890625 C 380.394531 165.980469 380.773438 169.082031 381.082031 172.191406 C 381.386719 175.300781 381.617188 178.414062 381.769531 181.535156 C 381.925781 184.65625 382 187.777344 382 190.902344 Z M 382 190.902344 " fill-opacity="1" fill-rule="nonzero"/><path fill="#bc65a7" d="M 260.570312 273.363281 L 130.484375 273.363281 C 111.984375 273.363281 95.84375 259.390625 95.84375 240.890625 L 95.84375 240.695312 L 95.84375 251.519531 C 95.84375 270.019531 111.984375 286.15625 130.480469 286.15625 L 260.570312 286.15625 C 279.265625 286.15625 295.210938 269.820312 295.210938 251.519531 L 295.210938 240.695312 C 295.210938 259.191406 279.070312 273.363281 260.570312 273.363281 Z M 95.648438 180.078125 L 95.648438 165.316406 L 71.441406 125.367188 C 70.0625 123.199219 69.472656 121.234375 69.667969 119.265625 L 69.667969 136.1875 C 69.667969 137.765625 70.257812 139.339844 71.242188 141.109375 Z M 95.648438 180.078125 " fill-opacity="1" fill-rule="nonzero"/><path fill="#ffffff" d="M 260.570312 112.769531 L 78.328125 112.769531 C 71.046875 112.769531 66.914062 119.066406 71.835938 125.757812 L 95.648438 167.089844 L 95.648438 240.890625 C 95.648438 259.785156 109.425781 275.527344 128.121094 275.527344 L 260.375 275.527344 C 279.070312 275.527344 295.011719 259.585938 295.011719 240.890625 L 295.011719 147.605469 C 295.210938 128.710938 279.265625 112.769531 260.570312 112.769531 Z M 260.570312 112.769531 " fill-opacity="1" fill-rule="nonzero"/><path fill="#bc65a7" d="M 258.40625 164.921875 L 132.644531 164.921875 C 127.136719 164.921875 121.820312 161.578125 121.820312 156.265625 C 121.820312 150.949219 127.136719 147.605469 132.644531 147.605469 L 258.40625 147.605469 C 263.914062 147.605469 269.230469 150.949219 269.230469 156.265625 C 269.230469 161.578125 263.914062 164.921875 258.40625 164.921875 Z M 258.40625 199.5625 L 132.644531 199.5625 C 127.136719 199.5625 121.820312 196.214844 121.820312 190.902344 C 121.820312 185.585938 127.136719 182.242188 132.644531 182.242188 L 258.40625 182.242188 C 263.914062 182.242188 269.230469 185.589844 269.230469 190.902344 C 269.230469 196.214844 263.914062 199.5625 258.40625 199.5625 Z M 223.570312 234.394531 L 132.449219 234.394531 C 126.941406 234.394531 121.625 231.050781 121.625 225.738281 C 121.625 220.421875 126.941406 217.078125 132.449219 217.078125 L 223.570312 217.078125 C 229.082031 217.078125 234.394531 220.421875 234.394531 225.738281 C 234.394531 231.050781 229.082031 234.394531 223.570312 234.394531 Z M 223.570312 234.394531 " fill-opacity="1" fill-rule="nonzero"/><path fill="#bc65a7" d="M 382 189.917969 C 381.605469 273.5625 327.089844 344.605469 251.910156 369.800781 C 232.820312 376.292969 212.351562 379.640625 191.097656 379.640625 C 86.003906 379.640625 0.785156 294.816406 0.195312 189.917969 L 0.195312 191.097656 C 0.195312 296.585938 85.609375 382 191.097656 382 C 212.351562 382 232.820312 378.457031 251.910156 372.160156 C 327.484375 346.773438 382 275.332031 382 191.097656 Z M 382 189.917969 " fill-opacity="1" fill-rule="nonzero"/><path fill="#bc65a7" d="M 251.714844 9.839844 C 232.625 3.347656 212.15625 0 190.902344 0 C 85.414062 0 0 85.414062 0 190.902344 L 0 192.082031 C 0.589844 87.183594 85.808594 2.363281 190.902344 2.363281 C 212.15625 2.363281 232.625 5.902344 251.714844 12.203125 C 327.089844 37.394531 381.410156 108.441406 381.804688 192.082031 L 381.804688 190.902344 C 382 106.667969 327.484375 35.230469 251.714844 9.839844 Z M 251.714844 9.839844 " fill-opacity="1" fill-rule="nonzero"/></svg>